<?xml version="1.0" encoding="UTF-8" standalone="no"?>
<!-- Created with Inkscape (http://www.inkscape.org/) -->

<svg
   width="393.13446"
   height="217.32283"
   viewBox="0 0 104.01682 57.499999"
   version="1.1"
   id="svg5"
   xml:space="preserve"
   inkscape:version="1.2.2 (b0a8486, 2022-12-01)"
   sodipodi:docname="Iconos.svg"
   xmlns:inkscape="http://www.inkscape.org/namespaces/inkscape"
   xmlns:sodipodi="http://sodipodi.sourceforge.net/DTD/sodipodi-0.dtd"
   xmlns="http://www.w3.org/2000/svg"
   xmlns:svg="http://www.w3.org/2000/svg"><sodipodi:namedview
     id="namedview7"
     pagecolor="#ffffff"
     bordercolor="#999999"
     borderopacity="1"
     inkscape:showpageshadow="0"
     inkscape:pageopacity="0"
     inkscape:pagecheckerboard="0"
     inkscape:deskcolor="#d1d1d1"
     inkscape:document-units="mm"
     showgrid="true"
     inkscape:zoom="0.91757853"
     inkscape:cx="550.90653"
     inkscape:cy="452.27737"
     inkscape:window-width="1366"
     inkscape:window-height="706"
     inkscape:window-x="0"
     inkscape:window-y="33"
     inkscape:window-maximized="1"
     inkscape:current-layer="layer1"
     showguides="true"><inkscape:grid
       type="axonomgrid"
       id="grid19842"
       visible="true"
       enabled="true" /><inkscape:grid
       type="xygrid"
       id="grid7047"
       spacingx="0.396875"
       spacingy="0.396875"
       enabled="false" /></sodipodi:namedview><defs
     id="defs2"><rect
       x="192.83675"
       y="153.38448"
       width="882.8255"
       height="268.14563"
       id="rect2968-3-36" /></defs><g
     inkscape:label="Capa 1"
     inkscape:groupmode="layer"
     id="layer1"
     transform="translate(-103.92306,-87.5)"><rect
       style="opacity:0;fill:#262626;fill-opacity:1;stroke-width:0.628779"
       id="rect40791"
       width="83.416672"
       height="83.416672"
       x="131.18007"
       y="69.774666"
       inkscape:export-filename="icon.png"
       inkscape:export-xdpi="61.57576"
       inkscape:export-ydpi="61.57576" /><g
       aria-label="Libre 
Lists"
       transform="matrix(0.2457432,0,0,0.2457432,106.19261,46.712822)"
       id="text2966-0-75"
       style="font-size:96px;font-family:Impact;-inkscape-font-specification:Impact;white-space:pre;shape-inside:url(#rect2968-3-36);display:inline;fill:#04aa6d;stroke-width:2"><path
         d="m 202.21094,249.70358 v -68.53125 h 7.96875 v 61.40625 h 30.42187 v 7.125 z"
         style="font-family:'Open Sans';-inkscape-font-specification:'Open Sans'"
         id="path14551" /><path
         d="m 258.92969,198.32858 v 51.375 h -7.78125 v -51.375 z m -3.79688,-19.21875 q 1.92188,0 3.28125,1.26562 1.40625,1.21875 1.40625,3.84375 0,2.57813 -1.40625,3.84375 -1.35937,1.26563 -3.28125,1.26563 -2.01562,0 -3.375,-1.26563 -1.3125,-1.26562 -1.3125,-3.84375 0,-2.625 1.3125,-3.84375 1.35938,-1.26562 3.375,-1.26562 z"
         style="font-family:'Open Sans';-inkscape-font-specification:'Open Sans'"
         id="path14553" /><path
         d="m 283.16406,176.76608 v 18.23437 q 0,3.14063 -0.1875,6.09375 -0.14062,2.95313 -0.23437,4.59375 h 0.42187 q 2.10938,-3.46875 6.09375,-5.85937 3.98438,-2.39063 10.17188,-2.39063 9.65625,0 15.375,6.70313 5.76562,6.65625 5.76562,19.82812 0,8.67188 -2.625,14.625 -2.625,5.95313 -7.40625,9 -4.78125,3.04688 -11.29687,3.04688 -6.09375,0 -10.03125,-2.25 -3.89063,-2.29688 -6,-5.57813 h -0.60938 l -1.59375,6.89063 h -5.625 v -72.9375 z m 15,27.1875 q -5.57812,0 -8.85937,2.20312 -3.28125,2.15625 -4.73438,6.5625 -1.40625,4.35938 -1.40625,11.0625 v 0.42188 q 0,9.70312 3.23438,14.85937 3.23437,5.10938 11.76562,5.10938 7.17188,0 10.73438,-5.25 3.60937,-5.25 3.60937,-15 0,-9.9375 -3.5625,-14.95313 -3.51562,-5.01562 -10.78125,-5.01562 z"
         style="font-family:'Open Sans';-inkscape-font-specification:'Open Sans'"
         id="path14555" /><path
         d="m 357.46094,197.39108 q 1.54687,0 3.23437,0.1875 1.6875,0.14062 3,0.42187 l -0.98437,7.21875 q -1.26563,-0.32812 -2.8125,-0.51562 -1.54688,-0.1875 -2.90625,-0.1875 -3.09375,0 -5.85938,1.26562 -2.71875,1.21875 -4.78125,3.5625 -2.0625,2.29688 -3.23437,5.57813 -1.17188,3.23437 -1.17188,7.21875 v 27.5625 h -7.82812 v -51.375 h 6.46875 l 0.84375,9.46875 h 0.32812 q 1.59375,-2.85938 3.84375,-5.20313 2.25,-2.39062 5.20313,-3.79687 3,-1.40625 6.65625,-1.40625 z"
         style="font-family:'Open Sans';-inkscape-font-specification:'Open Sans'"
         id="path14557" /><path
         d="m 393.13281,197.39108 q 6.5625,0 11.25,2.90625 4.6875,2.90625 7.17188,8.15625 2.48437,5.20312 2.48437,12.1875 v 4.82812 h -35.48437 q 0.14062,9.04688 4.5,13.78125 4.35937,4.73438 12.28125,4.73438 4.875,0 8.625,-0.89063 3.75,-0.89062 7.78125,-2.625 v 6.84375 q -3.89063,1.73438 -7.73438,2.53125 -3.79687,0.79688 -9,0.79688 -7.40625,0 -12.9375,-3 -5.48437,-3.04688 -8.53125,-8.90625 -3.04687,-5.85938 -3.04687,-14.34375 0,-8.29688 2.76562,-14.34375 2.8125,-6.09375 7.875,-9.375 5.10938,-3.28125 12,-3.28125 z m -0.0937,6.375 q -6.23437,0 -9.9375,4.07812 -3.70312,4.07813 -4.40625,11.39063 h 27.1875 q -0.0469,-4.59375 -1.45312,-8.0625 -1.35938,-3.51563 -4.17188,-5.4375 -2.8125,-1.96875 -7.21875,-1.96875 z"
         style="font-family:'Open Sans';-inkscape-font-specification:'Open Sans'"
         id="path14559" /><path
         d="M 202.21094,378.67495 V 310.1437 h 7.96875 v 61.40625 h 30.42187 v 7.125 z"
         style="font-family:'Open Sans';-inkscape-font-specification:'Open Sans'"
         id="path14561" /><path
         d="m 258.92969,327.29995 v 51.375 h -7.78125 v -51.375 z m -3.79688,-19.21875 q 1.92188,0 3.28125,1.26562 1.40625,1.21875 1.40625,3.84375 0,2.57813 -1.40625,3.84375 -1.35937,1.26563 -3.28125,1.26563 -2.01562,0 -3.375,-1.26563 -1.3125,-1.26562 -1.3125,-3.84375 0,-2.625 1.3125,-3.84375 1.35938,-1.26562 3.375,-1.26562 z"
         style="font-family:'Open Sans';-inkscape-font-specification:'Open Sans'"
         id="path14563" /><path
         d="m 308.61719,364.61245 q 0,4.92187 -2.48438,8.29687 -2.4375,3.32813 -7.03125,5.01563 -4.54687,1.6875 -10.875,1.6875 -5.39062,0 -9.32812,-0.84375 -3.9375,-0.84375 -6.89063,-2.39063 v -7.17187 q 3.14063,1.54687 7.5,2.8125 4.35938,1.26562 8.90625,1.26562 6.65625,0 9.65625,-2.15625 3,-2.15625 3,-5.85937 0,-2.10938 -1.21875,-3.70313 -1.17187,-1.64062 -3.98437,-3.14062 -2.8125,-1.54688 -7.78125,-3.375 -4.92188,-1.875 -8.53125,-3.70313 -3.5625,-1.875 -5.53125,-4.54687 -1.92188,-2.67188 -1.92188,-6.9375 0,-6.51563 5.25,-9.98438 5.29688,-3.51562 13.875,-3.51562 4.64063,0 8.67188,0.9375 4.07812,0.89062 7.59375,2.4375 l -2.625,6.23437 q -3.1875,-1.35937 -6.79688,-2.29687 -3.60937,-0.9375 -7.35937,-0.9375 -5.39063,0 -8.29688,1.78125 -2.85937,1.78125 -2.85937,4.875 0,2.39062 1.3125,3.9375 1.35937,1.54687 4.3125,2.90625 2.95312,1.35937 7.78125,3.1875 4.82812,1.78125 8.34375,3.70312 3.51562,1.875 5.39062,4.59375 1.92188,2.67188 1.92188,6.89063 z"
         style="font-family:'Open Sans';-inkscape-font-specification:'Open Sans'"
         id="path14565" /><path
         d="m 337.72656,373.23745 q 1.92188,0 3.9375,-0.32813 2.01563,-0.32812 3.28125,-0.79687 v 6.04687 q -1.35937,0.60938 -3.79687,1.03125 -2.39063,0.42188 -4.6875,0.42188 -4.07813,0 -7.40625,-1.40625 -3.32813,-1.45313 -5.34375,-4.875 -1.96875,-3.42188 -1.96875,-9.46875 V 333.3937 h -7.3125 v -3.79688 l 7.35937,-3.04687 3.09375,-11.15625 h 4.6875 v 11.90625 h 15.04688 v 6.09375 h -15.04688 v 30.23437 q 0,4.82813 2.20313,7.21875 2.25,2.39063 5.95312,2.39063 z"
         style="font-family:'Open Sans';-inkscape-font-specification:'Open Sans'"
         id="path14567" /><path
         d="m 388.58594,364.61245 q 0,4.92187 -2.48438,8.29687 -2.4375,3.32813 -7.03125,5.01563 -4.54687,1.6875 -10.875,1.6875 -5.39062,0 -9.32812,-0.84375 -3.9375,-0.84375 -6.89063,-2.39063 v -7.17187 q 3.14063,1.54687 7.5,2.8125 4.35938,1.26562 8.90625,1.26562 6.65625,0 9.65625,-2.15625 3,-2.15625 3,-5.85937 0,-2.10938 -1.21875,-3.70313 -1.17187,-1.64062 -3.98437,-3.14062 -2.8125,-1.54688 -7.78125,-3.375 -4.92188,-1.875 -8.53125,-3.70313 -3.5625,-1.875 -5.53125,-4.54687 -1.92188,-2.67188 -1.92188,-6.9375 0,-6.51563 5.25,-9.98438 5.29688,-3.51562 13.875,-3.51562 4.64063,0 8.67188,0.9375 4.07812,0.89062 7.59375,2.4375 l -2.625,6.23437 q -3.1875,-1.35937 -6.79688,-2.29687 -3.60937,-0.9375 -7.35937,-0.9375 -5.39063,0 -8.29688,1.78125 -2.85937,1.78125 -2.85937,4.875 0,2.39062 1.3125,3.9375 1.35937,1.54687 4.3125,2.90625 2.95312,1.35937 7.78125,3.1875 4.82812,1.78125 8.34375,3.70312 3.51562,1.875 5.39062,4.59375 1.92188,2.67188 1.92188,6.89063 z"
         style="font-family:'Open Sans';-inkscape-font-specification:'Open Sans'"
         id="path14569" /></g><path
       style="fill:#04aa6d;fill-opacity:1;stroke-width:0.529167"
       d="m 121.24355,105 4.33013,-2.5"
       id="path3630"
       inkscape:export-filename="../../../Descargas/firefox/icon.png"
       inkscape:export-xdpi="61.57576"
       inkscape:export-ydpi="61.57576" /><path
       style="fill:#04aa6d;fill-opacity:1;stroke-width:0.529167"
       d="m 112.5833,110 4.33012,-2.5 v 30 l 25.98077,-15 v 5 L 112.5833,145 Z"
       id="path3636"
       sodipodi:nodetypes="ccccccc" /><path
       style="fill:#04aa6d;fill-opacity:1;stroke-width:0.529167"
       d="M 121.24355,105 142.89419,92.499999 V 117.5 l -4.33013,2.5 v -20 l -17.32051,10 z"
       id="path3638"
       sodipodi:nodetypes="ccccccc" /><path
       style="fill:#04aa6d;fill-opacity:1;stroke-width:0.529167"
       d="m 121.24355,115 12.99038,-7.5 v 5 l -12.99038,7.5 z"
       id="path3640" /><path
       style="fill:#04aa6d;fill-opacity:1;stroke-width:0.529167"
       d="m 121.24355,125 12.99038,-7.5 v 5 l -12.99038,7.5 z"
       id="path3642" /><path
       style="fill:#04aa6d;fill-opacity:1;stroke-width:0.529167"
       d="m 138.56407,90 -30.31089,17.5 v 35 l -4.33012,-2.5 c 0,0 0,-35 0,-35 l 30.31089,-17.5 z"
       id="path4423" /></g></svg>
